<svg xmlns="http://www.w3.org/2000/svg" viewBox="0 0 750 500"><g id="freepik--background-simple--inject-46"><path d="M499.38,378.31S587,339.21,617.79,241.08,570.47,84.64,496.92,86.8s-104.55,29.89-166.33,34.87-154.48-31.9-236,16c-87.75,51.5-79.69,170.16-25.7,241,77.89,102.2,234.92,81.08,343.56,42.05a454.61,454.61,0,0,0,42.91-17.81C470.43,395.62,484.19,385.09,499.38,378.31Z" style="fill:#FFC100;opacity:0.7000000000000001"></path><path d="M499.38,378.31S587,339.21,617.79,241.08,570.47,84.64,496.92,86.8s-104.55,29.89-166.33,34.87-154.48-31.9-236,16c-87.75,51.5-79.69,170.16-25.7,241,77.89,102.2,234.92,81.08,343.56,42.05a454.61,454.61,0,0,0,42.91-17.81C470.43,395.62,484.19,385.09,499.38,378.31Z" style="fill:#fff;opacity:0.7000000000000001"></path></g><g id="freepik--Line--inject-46"><path d="M124.43,210.14a.51.51,0,0,1-.46-.3c-.21-.45-.41-.91-.61-1.38a.5.5,0,0,1,.92-.39c.19.45.39.91.6,1.36a.49.49,0,0,1-.25.66A.46.46,0,0,1,124.43,210.14Z" style="fill:#263238"></path><path d="M359.79,442.7h0a23.07,23.07,0,0,1-3.06-.39.48.48,0,0,1-.39-.58.5.5,0,0,1,.58-.4,22.63,22.63,0,0,0,2.92.37.49.49,0,0,1,.47.52A.5.5,0,0,1,359.79,442.7ZM352,440.81a.51.51,0,0,1-.2,0,20.57,20.57,0,0,1-2.71-1.46.5.5,0,0,1,.54-.85,19.28,19.28,0,0,0,2.58,1.4.5.5,0,0,1-.21.95Zm-6.4-4.71a.5.5,0,0,1-.39-.18,13.4,13.4,0,0,1-1.71-2.6.49.49,0,0,1,.22-.67.51.51,0,0,1,.67.22,12.71,12.71,0,0,0,1.59,2.41.5.5,0,0,1-.07.71A.51.51,0,0,1,345.63,436.1Zm-2.94-7.31a.5.5,0,0,1-.5-.47c0-.23,0-.46,0-.69a13.75,13.75,0,0,1,.14-1.91c0-.17.05-.34.08-.51a.49.49,0,0,1,.57-.41.5.5,0,0,1,.41.58c0,.16-.05.32-.07.47a13.57,13.57,0,0,0-.13,1.78c0,.21,0,.43,0,.64a.49.49,0,0,1-.47.52ZM246,428.37h-.7a.51.51,0,0,1-.5-.51.49.49,0,0,1,.5-.49h.7l2.3,0a.5.5,0,0,1,.51.49.51.51,0,0,1-.49.51Zm-5.71-.13h0c-1,0-2-.09-3-.16a.5.5,0,0,1-.47-.53.49.49,0,0,1,.53-.47c1,.07,2,.12,3,.16a.5.5,0,0,1,.47.53A.49.49,0,0,1,240.32,428.24Zm13-.07a.5.5,0,0,1,0-1c1-.06,2-.12,3-.2a.5.5,0,1,1,.08,1c-1,.08-2,.15-3,.21Zm-21-.58h-.07c-1-.14-2-.3-3-.49a.5.5,0,0,1-.41-.58.51.51,0,0,1,.59-.4c1,.18,2,.34,2.95.48a.5.5,0,0,1,.42.56A.49.49,0,0,1,232.32,427.59Zm29-.1a.5.5,0,0,1-.49-.45.49.49,0,0,1,.44-.55c1-.11,2-.24,3-.38a.49.49,0,0,1,.56.43.5.5,0,0,1-.42.56c-1,.14-2,.27-3,.38Zm7.94-1.17a.5.5,0,0,1-.09-1c1-.17,2-.36,2.95-.56a.51.51,0,0,1,.59.4.49.49,0,0,1-.39.58l-3,.57Zm-44.83-.3-.13,0c-1-.25-1.94-.53-2.91-.82a.5.5,0,0,1-.34-.63.51.51,0,0,1,.63-.33q1.44.43,2.88.81a.5.5,0,0,1,.35.61A.49.49,0,0,1,224.45,426Zm52.68-1.34a.5.5,0,0,1-.11-1c1-.24,1.94-.48,2.9-.74a.5.5,0,0,1,.61.36.49.49,0,0,1-.35.61c-1,.26-1.95.5-2.93.74Zm-60.32-1.1a.58.58,0,0,1-.18,0c-.94-.36-1.88-.73-2.82-1.13a.5.5,0,1,1,.4-.92c.92.39,1.84.76,2.77,1.12a.5.5,0,0,1-.17,1Zm68.06-1a.51.51,0,0,1-.48-.35.5.5,0,0,1,.34-.62c.95-.3,1.9-.6,2.85-.92a.5.5,0,0,1,.63.32.49.49,0,0,1-.31.63c-1,.32-1.92.63-2.88.92A.39.39,0,0,1,284.87,422.56Zm59.5-1.53a.54.54,0,0,1-.21,0,.5.5,0,0,1-.25-.66,29.63,29.63,0,0,1,1.43-2.71.5.5,0,0,1,.69-.17.49.49,0,0,1,.17.68,26.33,26.33,0,0,0-1.37,2.61A.51.51,0,0,1,344.37,421Zm-134.91-.7a.46.46,0,0,1-.22-.06q-1.35-.69-2.67-1.44a.49.49,0,0,1-.19-.68.51.51,0,0,1,.68-.19c.87.49,1.74,1,2.63,1.42a.5.5,0,0,1-.23.95Zm83-.36a.48.48,0,0,1-.46-.32.5.5,0,0,1,.29-.65l2.79-1.08a.5.5,0,1,1,.37.92c-.93.38-1.87.75-2.81,1.1Zm7.42-3.05a.51.51,0,0,1-.46-.3.5.5,0,0,1,.26-.66c.91-.41,1.81-.83,2.71-1.26a.5.5,0,0,1,.67.23.51.51,0,0,1-.23.67c-.91.44-1.83.86-2.74,1.27A.54.54,0,0,1,299.88,416.92Zm-97.34-.65a.46.46,0,0,1-.27-.09c-.86-.57-1.69-1.16-2.48-1.75a.5.5,0,0,1,.6-.8c.78.58,1.6,1.16,2.43,1.72a.5.5,0,0,1,.14.69A.49.49,0,0,1,202.54,416.27Zm146.12-2a.45.45,0,0,1-.31-.11.49.49,0,0,1-.07-.7c.6-.75,1.25-1.51,2-2.31a.5.5,0,1,1,.74.67c-.71.79-1.34,1.53-1.94,2.26A.48.48,0,0,1,348.66,414.27Zm-41.57-.87a.5.5,0,0,1-.44-.27.49.49,0,0,1,.21-.67l2.26-1.22.37-.21a.5.5,0,0,1,.68.19.49.49,0,0,1-.19.68l-.38.22c-.76.41-1.51.82-2.28,1.22A.46.46,0,0,1,307.09,413.4Zm-110.89-2a.46.46,0,0,1-.33-.13c-.76-.68-1.5-1.39-2.2-2.09a.5.5,0,0,1,0-.71.5.5,0,0,1,.71,0c.68.7,1.41,1.39,2.16,2.06a.5.5,0,0,1,0,.7A.52.52,0,0,1,196.2,411.36Zm117.88-1.9a.5.5,0,0,1-.43-.25.48.48,0,0,1,.17-.68l2.55-1.57a.5.5,0,0,1,.69.15.49.49,0,0,1-.16.69c-.85.54-1.71,1.07-2.57,1.58A.49.49,0,0,1,314.08,409.46Zm40-1.09a.47.47,0,0,1-.35-.15.49.49,0,0,1,0-.7c.72-.71,1.45-1.41,2.18-2.1a.49.49,0,0,1,.7,0,.5.5,0,0,1,0,.71c-.73.68-1.45,1.38-2.17,2.08A.46.46,0,0,1,354.1,408.37Zm-163.41-2.83a.52.52,0,0,1-.39-.19c-.64-.8-1.24-1.63-1.8-2.45a.5.5,0,1,1,.82-.57c.55.81,1.14,1.61,1.76,2.4a.49.49,0,0,1-.08.7A.51.51,0,0,1,190.69,405.54Zm130.15-.4a.52.52,0,0,1-.42-.22.51.51,0,0,1,.14-.7c.82-.56,1.65-1.13,2.46-1.7a.5.5,0,1,1,.58.81c-.82.58-1.65,1.16-2.48,1.72A.51.51,0,0,1,320.84,405.14Zm39.08-2.29a.52.52,0,0,1-.36-.16.5.5,0,0,1,0-.71c.75-.7,1.47-1.4,2.16-2.08a.51.51,0,0,1,.71,0,.5.5,0,0,1,0,.71c-.69.69-1.42,1.39-2.17,2.1A.52.52,0,0,1,359.92,402.85Zm-32.57-2.4a.5.5,0,0,1-.4-.19.51.51,0,0,1,.1-.7l2.36-1.85a.5.5,0,1,1,.62.78c-.78.63-1.57,1.25-2.38,1.86A.47.47,0,0,1,327.35,400.45Zm-141-1.66a.5.5,0,0,1-.45-.28c-.45-.91-.86-1.85-1.23-2.79a.5.5,0,0,1,.94-.36c.35.91.75,1.82,1.19,2.71a.5.5,0,0,1-.23.67A.42.42,0,0,1,186.38,398.79Zm179.2-1.64a.52.52,0,0,1-.35-.14.5.5,0,0,1,0-.71c.7-.72,1.39-1.45,2.08-2.18a.51.51,0,0,1,.71,0,.5.5,0,0,1,0,.71L365.94,397A.48.48,0,0,1,365.58,397.15Zm-32-1.76a.52.52,0,0,1-.38-.17.51.51,0,0,1,.05-.71c.76-.65,1.5-1.32,2.24-2a.5.5,0,0,1,.67.74c-.74.68-1.49,1.35-2.26,2A.49.49,0,0,1,333.58,395.39Zm37.5-4.09a.5.5,0,0,1-.37-.84q1-1.09,2-2.22a.5.5,0,0,1,.75.66c-.67.76-1.34,1.5-2,2.24A.5.5,0,0,1,371.08,391.3Zm-187.35-.05a.5.5,0,0,1-.49-.39c-.21-1-.37-2-.49-3a.51.51,0,0,1,.44-.56.5.5,0,0,1,.55.44c.12,1,.28,2,.48,2.92a.49.49,0,0,1-.38.59Zm155.73-1.32a.51.51,0,0,1-.36-.15.5.5,0,0,1,0-.7c.71-.71,1.39-1.43,2.07-2.16a.5.5,0,1,1,.73.67c-.68.75-1.37,1.48-2.09,2.19A.5.5,0,0,1,339.46,389.93Zm36.89-4.67a.51.51,0,0,1-.31-.11.5.5,0,0,1-.07-.71q.94-1.15,1.86-2.34a.5.5,0,0,1,.79.61c-.61.8-1.24,1.59-1.88,2.37A.5.5,0,0,1,376.35,385.26ZM344.82,384a.45.45,0,0,1-.31-.11.49.49,0,0,1-.07-.7c.64-.77,1.26-1.55,1.88-2.34a.52.52,0,0,1,.71-.08.5.5,0,0,1,.08.7c-.63.79-1.26,1.58-1.9,2.35A.5.5,0,0,1,344.82,384Zm-161.73-.68h0a.5.5,0,0,1-.47-.53c0-1,.14-2,.28-3a.51.51,0,0,1,.57-.42.5.5,0,0,1,.42.56c-.13,1-.23,2-.27,2.95A.51.51,0,0,1,183.09,383.29Zm198.06-4.46a.47.47,0,0,1-.28-.09.5.5,0,0,1-.14-.69c.56-.84,1.1-1.69,1.6-2.52a.5.5,0,1,1,.85.51c-.5.85-1.05,1.71-1.62,2.57A.49.49,0,0,1,381.15,378.83Zm-31.37-1.17a.52.52,0,0,1-.31-.1.5.5,0,0,1-.09-.7l1.81-2.41a.49.49,0,0,1,.7-.09.5.5,0,0,1,.1.7l-1.81,2.4A.51.51,0,0,1,349.78,377.66Zm-165.36-2.27a.36.36,0,0,1-.14,0,.5.5,0,0,1-.34-.62c.27-.95.6-1.92.95-2.89a.5.5,0,0,1,.65-.29.49.49,0,0,1,.29.64c-.35.94-.66,1.89-.93,2.82A.49.49,0,0,1,184.42,375.39Zm200.72-3.51a.54.54,0,0,1-.22-.05.5.5,0,0,1-.23-.67c.43-.9.84-1.81,1.21-2.72a.49.49,0,0,1,.65-.27.49.49,0,0,1,.27.65c-.38.92-.79,1.86-1.23,2.77A.51.51,0,0,1,385.14,371.88Zm-30.52-.62a.57.57,0,0,1-.31-.1.51.51,0,0,1-.09-.71c.61-.79,1.23-1.59,1.86-2.37a.49.49,0,0,1,.7-.08.49.49,0,0,1,.08.7c-.62.78-1.24,1.57-1.85,2.36A.49.49,0,0,1,354.62,371.26ZM187.38,368a.59.59,0,0,1-.23-.05.52.52,0,0,1-.22-.68c.46-.89,1-1.78,1.48-2.65a.5.5,0,0,1,.69-.17.49.49,0,0,1,.17.68c-.51.85-1,1.73-1.45,2.6A.49.49,0,0,1,187.38,368ZM359.67,365a.49.49,0,0,1-.38-.82c.66-.77,1.33-1.52,2-2.26a.49.49,0,0,1,.7,0,.48.48,0,0,1,0,.7c-.68.73-1.34,1.48-2,2.23A.51.51,0,0,1,359.67,365Zm28.3-.64h-.12a.51.51,0,0,1-.37-.61,17.42,17.42,0,0,0,.52-2.88.5.5,0,1,1,1,.09,18,18,0,0,1-.54,3A.49.49,0,0,1,388,364.38Zm-196.31-3.19a.5.5,0,0,1-.31-.1.51.51,0,0,1-.09-.71c.61-.79,1.25-1.58,1.92-2.35a.5.5,0,1,1,.75.65c-.65.75-1.28,1.53-1.87,2.31A.51.51,0,0,1,191.66,361.19Zm173.58-1.93a.52.52,0,0,1-.38-.17.51.51,0,0,1,.06-.71c.73-.62,1.54-1.25,2.4-1.88a.5.5,0,0,1,.59.81c-.85.61-1.63,1.23-2.34,1.83A.52.52,0,0,1,365.24,359.26Zm22.77-2.8a.48.48,0,0,1-.47-.35,7.39,7.39,0,0,0-1.27-2.49.5.5,0,1,1,.78-.63,8.38,8.38,0,0,1,1.44,2.83.49.49,0,0,1-.33.62A.39.39,0,0,1,388,356.46Zm-191-1.23a.52.52,0,0,1-.36-.16.49.49,0,0,1,0-.7c.71-.69,1.46-1.38,2.24-2.05a.5.5,0,0,1,.65.76c-.76.66-1.5,1.33-2.2,2A.52.52,0,0,1,197,355.23Zm174.84-.51a.49.49,0,0,1-.44-.26.51.51,0,0,1,.2-.68c.92-.5,1.84-1,2.73-1.36a.5.5,0,0,1,.41.91c-.87.39-1.76.84-2.66,1.33A.5.5,0,0,1,371.85,354.72Zm7.45-2.89a.51.51,0,0,1-.49-.41.5.5,0,0,1,.4-.58,11,11,0,0,1,3.13-.2.5.5,0,1,1-.08,1,10.58,10.58,0,0,0-2.86.19Zm-176.15-1.76a.49.49,0,0,1-.41-.21.51.51,0,0,1,.11-.7c.8-.6,1.63-1.18,2.46-1.75a.5.5,0,1,1,.57.82c-.83.57-1.64,1.14-2.44,1.74A.53.53,0,0,1,203.15,350.07Zm6.66-4.46a.49.49,0,0,1-.42-.24.5.5,0,0,1,.16-.69c.87-.52,1.74-1,2.62-1.53a.51.51,0,0,1,.68.19.52.52,0,0,1-.19.69c-.87.49-1.74,1-2.59,1.5A.5.5,0,0,1,209.81,345.61Zm7-3.89a.51.51,0,0,1-.45-.27.51.51,0,0,1,.22-.67c.9-.46,1.8-.9,2.71-1.34a.5.5,0,0,1,.44.9c-.91.43-1.8.88-2.7,1.33A.44.44,0,0,1,216.84,341.72Zm7.26-3.43a.5.5,0,0,1-.2-1c.92-.41,1.84-.81,2.77-1.2a.5.5,0,0,1,.39.92c-.93.39-1.84.79-2.76,1.19A.49.49,0,0,1,224.1,338.29Zm7.4-3.11a.47.47,0,0,1-.46-.31.49.49,0,0,1,.27-.65l2.81-1.1a.5.5,0,0,1,.64.28.51.51,0,0,1-.28.65l-2.79,1.1A.63.63,0,0,1,231.5,335.18ZM239,332.3a.49.49,0,0,1-.47-.32.5.5,0,0,1,.29-.65l2.83-1a.49.49,0,0,1,.64.29.5.5,0,0,1-.3.64l-2.82,1A.51.51,0,0,1,239,332.3Zm7.53-2.77a.52.52,0,0,1-.47-.33.5.5,0,0,1,.3-.64l2.82-1a.5.5,0,0,1,.65.29.52.52,0,0,1-.3.65l-2.83,1A.47.47,0,0,1,246.52,329.53Zm7.53-2.81a.5.5,0,0,1-.18-1l2.8-1.09a.5.5,0,1,1,.36.94l-2.81,1.08Zm7.47-2.91a.5.5,0,0,1-.18-1l2.8-1.11a.5.5,0,0,1,.65.28.51.51,0,0,1-.28.65l-2.8,1.11A.63.63,0,0,1,261.52,323.81Zm7.45-3a.51.51,0,0,1-.46-.31.5.5,0,0,1,.28-.65l2.78-1.14a.5.5,0,0,1,.38.92c-.93.39-1.86.76-2.79,1.14A.41.41,0,0,1,269,320.83Zm7.42-3.06a.51.51,0,0,1-.46-.31.49.49,0,0,1,.27-.65l2.77-1.18a.5.5,0,0,1,.39.92l-2.77,1.18A.71.71,0,0,1,276.39,317.77Zm7.38-3.16a.5.5,0,0,1-.46-.3.51.51,0,0,1,.26-.66l2.75-1.21a.5.5,0,0,1,.66.26.49.49,0,0,1-.25.65L284,314.57A.48.48,0,0,1,283.77,314.61Zm7.33-3.27a.52.52,0,0,1-.46-.29.5.5,0,0,1,.25-.66l2.73-1.26a.5.5,0,0,1,.67.25.51.51,0,0,1-.25.66l-2.73,1.26A.52.52,0,0,1,291.1,311.34Zm7.27-3.39a.5.5,0,0,1-.22-.95l2.71-1.31a.51.51,0,0,1,.67.23.5.5,0,0,1-.23.67l-2.71,1.31A.59.59,0,0,1,298.37,308Zm7.2-3.53a.5.5,0,0,1-.22-.95l2.68-1.36a.5.5,0,1,1,.45.89c-.89.46-1.78.92-2.68,1.37A.59.59,0,0,1,305.57,304.42Zm7.13-3.68a.5.5,0,0,1-.23-.95l2.64-1.42a.5.5,0,0,1,.48.88l-2.65,1.43A.53.53,0,0,1,312.7,300.74Zm7-3.86a.52.52,0,0,1-.44-.25.5.5,0,0,1,.19-.68c.88-.49,1.75-1,2.62-1.49a.51.51,0,0,1,.68.19.5.5,0,0,1-.19.68L320,296.82A.57.57,0,0,1,319.74,296.88Zm6.94-4a.49.49,0,0,1-.43-.24.49.49,0,0,1,.17-.68l2.57-1.56a.5.5,0,1,1,.52.85c-.85.53-1.71,1-2.57,1.56A.48.48,0,0,1,326.68,292.85Zm6.82-4.22a.51.51,0,0,1-.42-.23.5.5,0,0,1,.15-.69c.85-.54,1.69-1.08,2.52-1.63a.5.5,0,1,1,.55.84l-2.53,1.63A.45.45,0,0,1,333.5,288.63Zm6.7-4.42a.52.52,0,0,1-.42-.22.51.51,0,0,1,.13-.69l2.47-1.71a.5.5,0,1,1,.58.81l-2.48,1.72A.51.51,0,0,1,340.2,284.21Zm6.55-4.64a.5.5,0,0,1-.3-.9c.81-.59,1.61-1.19,2.41-1.79a.49.49,0,0,1,.7.1.5.5,0,0,1-.1.7l-2.42,1.8A.52.52,0,0,1,346.75,279.57Zm6.38-4.87a.5.5,0,0,1-.39-.18.51.51,0,0,1,.08-.71c.77-.62,1.54-1.26,2.3-1.91a.5.5,0,1,1,.65.77c-.77.65-1.55,1.29-2.33,1.92A.45.45,0,0,1,353.13,274.7Zm6.07-5.25a.49.49,0,0,1-.37-.16.49.49,0,0,1,0-.7q1.09-1,2.16-2.07a.5.5,0,0,1,.71,0,.51.51,0,0,1,0,.71c-.73.71-1.46,1.41-2.19,2.09A.5.5,0,0,1,359.2,269.45Zm5.66-5.68a.46.46,0,0,1-.33-.13.5.5,0,0,1,0-.71c.67-.73,1.34-1.48,2-2.23a.5.5,0,0,1,.76.65c-.66.76-1.33,1.52-2,2.26A.49.49,0,0,1,364.86,263.77Zm5.17-6.14a.49.49,0,0,1-.4-.8c.61-.79,1.2-1.6,1.77-2.41a.5.5,0,0,1,.81.57c-.57.83-1.17,1.64-1.79,2.45A.49.49,0,0,1,370,257.63Zm4.51-6.63a.48.48,0,0,1-.26-.07.5.5,0,0,1-.17-.69c.52-.86,1-1.73,1.47-2.59a.5.5,0,0,1,.68-.21.51.51,0,0,1,.2.68c-.47.88-1,1.76-1.49,2.64A.52.52,0,0,1,374.54,251Zm3.64-7.14a.43.43,0,0,1-.19,0,.49.49,0,0,1-.27-.65l.47-1.16c.22-.54.41-1.08.6-1.62a.5.5,0,0,1,.63-.31.51.51,0,0,1,.31.64c-.19.55-.39,1.1-.61,1.65-.15.4-.31.79-.48,1.19A.49.49,0,0,1,378.18,243.86Zm-211.86-3.44-1.65,0a.5.5,0,0,1-.48-.52.52.52,0,0,1,.52-.48c1,0,2,0,3,0a.5.5,0,0,1,.52.48.5.5,0,0,1-.48.52Zm6.37-.47a.51.51,0,0,1-.5-.43.5.5,0,0,1,.43-.56c1-.15,1.95-.32,2.92-.53a.52.52,0,0,1,.6.39.51.51,0,0,1-.39.59c-1,.21-2,.39-3,.54Zm-13-.06h-.08c-1-.16-2-.36-3-.59a.51.51,0,0,1-.37-.61.5.5,0,0,1,.6-.37c1,.23,1.94.42,2.92.58a.5.5,0,0,1-.08,1Zm20.78-1.74a.5.5,0,0,1-.14-1c.93-.29,1.88-.62,2.82-1a.49.49,0,0,1,.64.3.5.5,0,0,1-.29.64c-1,.35-1.93.68-2.88,1A.39.39,0,0,1,180.49,238.15ZM152,237.88a.51.51,0,0,1-.17,0c-.95-.35-1.9-.74-2.82-1.16a.5.5,0,0,1-.25-.66.51.51,0,0,1,.67-.25c.9.41,1.82.79,2.74,1.13a.49.49,0,0,1,.3.64A.51.51,0,0,1,152,237.88Zm228.63-1.66h-.1a.49.49,0,0,1-.39-.59c.19-1,.35-2,.46-2.93a.5.5,0,0,1,1,.12c-.12,1-.28,2-.48,3A.5.5,0,0,1,380.58,236.22ZM188,235.29a.49.49,0,0,1-.45-.3.5.5,0,0,1,.25-.66c.9-.41,1.8-.83,2.7-1.28a.5.5,0,0,1,.67.23.51.51,0,0,1-.23.67c-.9.45-1.82.88-2.73,1.29A.54.54,0,0,1,188,235.29Zm-43.23-.91a.48.48,0,0,1-.26-.07c-.86-.52-1.71-1.09-2.54-1.68a.5.5,0,0,1-.12-.7.51.51,0,0,1,.7-.12c.81.58,1.64,1.13,2.48,1.65a.49.49,0,0,1,.16.68A.48.48,0,0,1,144.75,234.38Zm50.38-2.73a.53.53,0,0,1-.44-.26.51.51,0,0,1,.19-.68c.87-.49,1.73-1,2.59-1.5a.5.5,0,0,1,.51.85c-.86.52-1.73,1-2.6,1.52A.59.59,0,0,1,195.13,231.65Zm-56.8-2.07a.5.5,0,0,1-.33-.12c-.75-.67-1.49-1.38-2.2-2.1a.5.5,0,0,1,0-.71.5.5,0,0,1,.71,0c.7.7,1.42,1.4,2.15,2.05a.5.5,0,0,1,0,.71A.49.49,0,0,1,138.33,229.58Zm242.94-1.33a.51.51,0,0,1-.5-.49c0-1-.11-2-.22-2.95a.51.51,0,0,1,.44-.56.5.5,0,0,1,.55.44c.12,1,.2,2,.23,3a.5.5,0,0,1-.49.52ZM202,227.47a.5.5,0,0,1-.42-.22.51.51,0,0,1,.14-.7c.84-.54,1.67-1.09,2.5-1.65a.5.5,0,0,1,.7.13.51.51,0,0,1-.14.7c-.83.56-1.67,1.11-2.51,1.66A.45.45,0,0,1,202,227.47Zm-69.17-3.7a.5.5,0,0,1-.39-.18c-.63-.78-1.26-1.58-1.85-2.4a.5.5,0,1,1,.8-.59c.59.8,1.2,1.6,1.82,2.36a.49.49,0,0,1-.07.7A.45.45,0,0,1,132.81,223.77Zm75.8-.82a.49.49,0,0,1-.41-.21.5.5,0,0,1,.12-.7l2.44-1.75a.5.5,0,0,1,.59.81l-2.45,1.76A.52.52,0,0,1,208.61,223Zm171.47-2.62a.49.49,0,0,1-.48-.36c-.26-.95-.57-1.9-.91-2.82a.49.49,0,0,1,.29-.64.5.5,0,0,1,.65.29c.35.95.67,1.92.93,2.9a.5.5,0,0,1-.34.62Zm-165-2.1a.51.51,0,0,1-.4-.2.5.5,0,0,1,.11-.7l2.41-1.79a.5.5,0,1,1,.6.8l-2.42,1.8A.53.53,0,0,1,215.1,218.23Zm-86.92-1a.48.48,0,0,1-.42-.24c-.52-.85-1-1.73-1.52-2.62a.49.49,0,0,1,.19-.68.51.51,0,0,1,.68.2c.48.88,1,1.74,1.5,2.58a.5.5,0,0,1-.17.69A.48.48,0,0,1,128.18,217.22Zm93.37-3.77a.51.51,0,0,1-.4-.2.5.5,0,0,1,.11-.7l2.43-1.78a.5.5,0,0,1,.7.11.51.51,0,0,1-.11.7c-.81.58-1.62,1.18-2.43,1.78A.53.53,0,0,1,221.55,213.45Zm155.52-.53a.49.49,0,0,1-.44-.26c-.47-.86-1-1.71-1.54-2.54a.5.5,0,0,1,.84-.55c.56.85,1.09,1.72,1.58,2.61a.51.51,0,0,1-.2.68A.53.53,0,0,1,377.07,212.92Zm-149-4.17a.49.49,0,0,1-.41-.21.5.5,0,0,1,.13-.7l2.48-1.71a.51.51,0,0,1,.7.14.5.5,0,0,1-.14.69l-2.47,1.7A.52.52,0,0,1,228.06,208.75Zm144.4-2.39a.48.48,0,0,1-.37-.17c-.65-.73-1.33-1.46-2-2.15a.5.5,0,1,1,.7-.72c.72.71,1.43,1.46,2.09,2.21a.51.51,0,0,1,0,.71A.5.5,0,0,1,372.46,206.36Zm-137.71-2.05a.5.5,0,0,1-.27-.92c.86-.53,1.72-1,2.59-1.56a.49.49,0,0,1,.68.17.51.51,0,0,1-.17.69c-.87.51-1.72,1-2.57,1.55A.48.48,0,0,1,234.75,204.31Zm131.86-3.41a.5.5,0,0,1-.3-.11c-.57-.44-1.16-.86-1.76-1.28l-.66-.45a.51.51,0,0,1-.14-.7.5.5,0,0,1,.7-.13l.67.46c.61.42,1.21.86,1.8,1.31a.5.5,0,0,1,.09.7A.51.51,0,0,1,366.61,200.9Zm-124.92-.6a.5.5,0,0,1-.24-.94c.89-.48,1.78-.94,2.67-1.4a.5.5,0,1,1,.46.89c-.89.45-1.78.92-2.65,1.39A.53.53,0,0,1,241.69,200.3Zm7.17-3.6a.48.48,0,0,1-.45-.29.49.49,0,0,1,.24-.66c.91-.42,1.82-.84,2.74-1.24a.49.49,0,0,1,.66.25.5.5,0,0,1-.25.66c-.92.4-1.83.82-2.73,1.24A.52.52,0,0,1,248.86,196.7Zm111.07-.24a.59.59,0,0,1-.25-.07c-.86-.51-1.73-1-2.6-1.48a.5.5,0,0,1,.48-.88c.88.48,1.76,1,2.63,1.5a.5.5,0,0,1-.26.93Zm-103.71-2.94a.47.47,0,0,1-.46-.31.49.49,0,0,1,.27-.65l2.82-1.09a.51.51,0,0,1,.64.29.5.5,0,0,1-.29.65q-1.41.53-2.79,1.08Zm96.63-.83a.52.52,0,0,1-.21,0c-.9-.43-1.81-.84-2.73-1.24a.5.5,0,1,1,.4-.92c.93.4,1.85.82,2.76,1.25a.5.5,0,0,1-.22.95Zm-89.1-1.93a.5.5,0,0,1-.16-1c1-.32,1.91-.64,2.87-.94a.5.5,0,0,1,.3,1l-2.85.92A.45.45,0,0,1,263.75,190.76Zm81.71-1.17a.47.47,0,0,1-.17,0c-.94-.35-1.88-.68-2.83-1a.52.52,0,0,1-.32-.64.5.5,0,0,1,.64-.31c1,.32,1.91.65,2.85,1a.5.5,0,0,1,.3.64A.52.52,0,0,1,345.46,189.59Zm-74-1.18a.5.5,0,0,1-.48-.37.49.49,0,0,1,.34-.61c1-.27,2-.53,2.92-.78a.51.51,0,0,1,.61.36.5.5,0,0,1-.36.61l-2.9.77Zm66.4-1.28a.3.3,0,0,1-.13,0c-1-.26-1.93-.51-2.9-.75a.5.5,0,1,1,.24-1c1,.24,2,.49,2.92.76a.5.5,0,0,1-.13,1Zm-58.61-.65a.5.5,0,0,1-.11-1l2.95-.61a.5.5,0,0,1,.59.39.49.49,0,0,1-.39.59c-1,.19-2,.4-2.94.61ZM330,185.3h-.1c-1-.19-2-.37-2.94-.53a.5.5,0,1,1,.16-1c1,.17,2,.34,3,.53a.51.51,0,0,1,.4.59A.5.5,0,0,1,330,185.3ZM287.09,185a.5.5,0,0,1-.08-1c1-.16,2-.31,3-.45a.5.5,0,1,1,.13,1l-3,.44Zm35-.91H322c-1-.11-2-.22-3-.31a.49.49,0,0,1-.45-.54.48.48,0,0,1,.54-.45c1,.09,2,.19,3,.31a.5.5,0,0,1-.06,1ZM295,184a.49.49,0,0,1-.49-.45A.5.5,0,0,1,295,183l3-.27a.5.5,0,0,1,.54.46.5.5,0,0,1-.46.54c-1,.08-2,.17-3,.27Zm19-.53h0c-1,0-2-.09-3-.11a.52.52,0,0,1-.49-.51.49.49,0,0,1,.52-.49c1,0,2,.06,3,.11a.5.5,0,0,1,0,1Zm-11,0a.5.5,0,0,1,0-1c1,0,2-.07,3-.09a.52.52,0,0,1,.51.5.5.5,0,0,1-.49.5l-3,.09Z" style="fill:#263238"></path><path d="M365,442.29a.5.5,0,0,1-.11-1,13,13,0,0,0,1.39-.38.49.49,0,0,1,.64.31.5.5,0,0,1-.32.63c-.49.16-1,.3-1.49.42Z" style="fill:#263238"></path></g><g id="freepik--Butterflies--inject-46"><path d="M389.51,196.78a4.25,4.25,0,0,1-2.47.34l-.75,0c-.6,0-2.42.08-3-1.36s.29-5.12.95-7.51c-1.37,1.59-3.62,3.66-5.67,3a9.61,9.61,0,0,1-3.92-2.77,23.34,23.34,0,0,0-4.57-3.68l-1.5-.88c-2.83-1.64-5.28-3.06-5.63-4.94a3.16,3.16,0,0,1,.84-2.59c1-1.23,3.43-1.87,7.22-1.89a32.68,32.68,0,0,1,14,3.19,32.65,32.65,0,0,1,3-14.09c1.61-3.43,3.21-5.36,4.75-5.75h0a3.13,3.13,0,0,1,2.7.32c1.56,1.11,1.82,3.93,2.12,7.19.05.56.11,1.14.17,1.72a22.83,22.83,0,0,0,1.41,5.7,9.52,9.52,0,0,1,.86,4.73c-.3,2.11-3.12,3.29-5.14,3.86,2.44.41,6.23,1.2,7.21,2.29s.22,2.73,0,3.27c-.81,1.77-1.76,3.31-4.3,2.77a12.66,12.66,0,0,1-1.55-.46,11,11,0,0,0-1.49-.45c-1.1-.23-2.17-.42-3.19-.59a28.14,28.14,0,0,0-1,5.17,18.06,18.06,0,0,1-.44,2.61A1.74,1.74,0,0,1,389.51,196.78Z" style="fill:#263238"></path><path d="M385.63,178.66l0,0a.38.38,0,0,1-.52-.16c0-.06-3.3-6-8.47-8.08a.4.4,0,0,1-.22-.51.39.39,0,0,1,.51-.21,16.59,16.59,0,0,1,6.24,4.72c-1.27-3-2.52-6.63-1.63-8a.39.39,0,0,1,.54-.11.37.37,0,0,1,.11.53c-.94,1.42,1.71,7.66,3.6,11.26A.38.38,0,0,1,385.63,178.66Z" style="fill:#263238"></path><path d="M304.38,88.77a3.17,3.17,0,0,1-1.49-1,3.45,3.45,0,0,0-.39-.38c-.33-.29-1.33-1.16-.94-2.24s2.69-2.57,4.22-3.52c-1.51.17-3.73.16-4.52-1.19a7.07,7.07,0,0,1-.72-3.41,16.24,16.24,0,0,0-.61-4.22c-.11-.41-.24-.82-.36-1.21-.69-2.28-1.29-4.25-.54-5.42a2.26,2.26,0,0,1,1.72-1c1.15-.16,2.75.7,4.78,2.57a23.75,23.75,0,0,1,5.9,8.65,23.69,23.69,0,0,1,8.58-6c2.55-1,4.36-1.27,5.37-.71h0a2.3,2.3,0,0,1,1.28,1.51c.28,1.36-1,3-2.43,4.87l-.77,1a16.27,16.27,0,0,0-2.06,3.73,7.05,7.05,0,0,1-1.89,2.94c-1.2,1-3.28.21-4.64-.49,1.09,1.43,2.72,3.72,2.7,4.79s-1.23,1.56-1.63,1.72c-1.32.54-2.58.9-3.67-.65a10.57,10.57,0,0,1-.59-1,8.4,8.4,0,0,0-.57-1c-.47-.66-.95-1.3-1.41-1.89a21.06,21.06,0,0,0-3.07,2.27,13.34,13.34,0,0,1-1.52,1.17A1.2,1.2,0,0,1,304.38,88.77Z" style="fill:#263238"></path><path d="M311.28,77.21h0a.28.28,0,0,1-.2-.34s1.23-4.84-.51-8.49a.29.29,0,0,1,.14-.38.28.28,0,0,1,.37.14,12.15,12.15,0,0,1,1,5.6c.78-2.2,1.93-4.77,3.07-5a.27.27,0,0,1,.34.21.28.28,0,0,1-.2.34c-1.2.29-2.88,4.92-3.66,7.77A.28.28,0,0,1,311.28,77.21Z" style="fill:#263238"></path><path d="M175.78,398.89a3.22,3.22,0,0,1-1.48-1c-.14-.14-.27-.27-.39-.37-.33-.29-1.33-1.14-.94-2.2s2.69-2.53,4.22-3.46c-1.52.17-3.74.16-4.52-1.16a6.86,6.86,0,0,1-.72-3.35,15.77,15.77,0,0,0-.61-4.15c-.12-.4-.24-.8-.36-1.18-.69-2.24-1.29-4.17-.55-5.32a2.29,2.29,0,0,1,1.73-.94c1.14-.16,2.75.69,4.78,2.52a23.21,23.21,0,0,1,5.89,8.49,23.59,23.59,0,0,1,8.59-5.89c2.55-1,4.36-1.24,5.37-.7h0a2.23,2.23,0,0,1,1.27,1.48c.29,1.34-1,2.94-2.42,4.79-.26.32-.51.64-.77,1a16.27,16.27,0,0,0-2.07,3.66,6.89,6.89,0,0,1-1.88,2.89c-1.21,1-3.29.2-4.65-.48,1.1,1.4,2.72,3.65,2.71,4.7s-1.24,1.53-1.64,1.69c-1.31.53-2.58.88-3.66-.64a9.34,9.34,0,0,1-.59-1,11,11,0,0,0-.57-1c-.48-.65-1-1.27-1.41-1.85a20.8,20.8,0,0,0-3.07,2.22,12.71,12.71,0,0,1-1.53,1.16A1.26,1.26,0,0,1,175.78,398.89Z" style="fill:#263238"></path><path d="M182.69,387.54h0a.29.29,0,0,1-.2-.34c0-.05,1.24-4.76-.5-8.34a.26.26,0,0,1,.13-.36.28.28,0,0,1,.38.13,11.58,11.58,0,0,1,1,5.49c.79-2.16,1.94-4.68,3.08-4.95a.28.28,0,0,1,.34.2.28.28,0,0,1-.21.34c-1.2.28-2.87,4.83-3.65,7.63A.28.28,0,0,1,182.69,387.54Z" style="fill:#263238"></path><path d="M125.34,218.82a2.65,2.65,0,0,1-1.53,0l-.45-.07c-.37,0-1.48-.12-1.76-1s.54-3.09,1.1-4.5c-.94.88-2.45,2-3.65,1.46a5.88,5.88,0,0,1-2.2-2,13.86,13.86,0,0,0-2.52-2.55l-.85-.64c-1.61-1.2-3-2.23-3.08-3.4a1.92,1.92,0,0,1,.69-1.51c.7-.68,2.22-.9,4.52-.65a19.92,19.92,0,0,1,8.32,2.92,20,20,0,0,1,2.82-8.36c1.22-2,2.32-3,3.29-3.17h0a2,2,0,0,1,1.62.39c.87.78.83,2.51.79,4.52,0,.34,0,.7,0,1.06a14,14,0,0,0,.46,3.56,5.89,5.89,0,0,1,.19,2.93c-.33,1.27-2.12,1.78-3.39,2,1.46.42,3.7,1.16,4.22,1.9s0,1.67-.24,2c-.62,1-1.3,1.89-2.81,1.39a8.3,8.3,0,0,1-.91-.39,7.19,7.19,0,0,0-.87-.38c-.65-.21-1.29-.41-1.9-.58a17.83,17.83,0,0,0-1,3.07,9.67,9.67,0,0,1-.45,1.56A1,1,0,0,1,125.34,218.82Z" style="fill:#263238"></path><path d="M124.24,207.54h0a.24.24,0,0,1-.31-.13s-1.58-3.9-4.58-5.5a.24.24,0,1,1,.22-.42,10.22,10.22,0,0,1,3.47,3.3c-.57-1.88-1.07-4.2-.44-4.95a.24.24,0,0,1,.34,0,.23.23,0,0,1,0,.33c-.66.8.51,4.78,1.41,7.1A.23.23,0,0,1,124.24,207.54Z" style="fill:#263238"></path></g><g id="freepik--Sun--inject-46"><polygon points="136.31 113.33 142.95 104.69 132.51 101.6 132.79 90.71 122.53 94.34 116.36 85.37 110.19 94.34 99.93 90.71 100.22 101.6 89.77 104.69 96.41 113.33 89.77 121.97 100.22 125.05 99.93 135.94 110.19 132.31 116.36 141.28 122.53 132.31 132.8 135.94 132.51 125.05 142.95 121.97 136.31 113.33" style="fill:#263238"></polygon><path d="M116.36,141.78a.49.49,0,0,1-.41-.22l-6-8.65-9.91,3.5a.48.48,0,0,1-.46-.07.47.47,0,0,1-.2-.41l.28-10.51-10.08-3a.48.48,0,0,1-.34-.32.5.5,0,0,1,.08-.46l6.41-8.33L89.37,105a.5.5,0,0,1-.08-.46.48.48,0,0,1,.34-.32l10.08-3-.28-10.51a.47.47,0,0,1,.2-.41.48.48,0,0,1,.46-.07l9.91,3.5,6-8.65a.49.49,0,0,1,.41-.22h0a.48.48,0,0,1,.41.22l6,8.65,9.91-3.5a.47.47,0,0,1,.46.07.51.51,0,0,1,.21.41L133,101.23l10.07,3a.48.48,0,0,1,.34.32.5.5,0,0,1-.08.46l-6.41,8.34,6.41,8.33a.5.5,0,0,1,.08.46.48.48,0,0,1-.34.32l-10.07,3,.28,10.51a.51.51,0,0,1-.21.41.47.47,0,0,1-.46.07l-9.9-3.5-6,8.65A.48.48,0,0,1,116.36,141.78Zm-6.17-10a.51.51,0,0,1,.41.21l5.76,8.38,5.76-8.38a.5.5,0,0,1,.58-.18l9.58,3.39L132,125.06a.5.5,0,0,1,.36-.49l9.74-2.88-6.19-8.06a.5.5,0,0,1,0-.61l6.19-8.06-9.74-2.88a.5.5,0,0,1-.36-.5l.27-10.16-9.58,3.39a.5.5,0,0,1-.58-.18l-5.76-8.38-5.76,8.38a.48.48,0,0,1-.57.18l-9.58-3.39.26,10.17a.5.5,0,0,1-.35.49L90.61,105,96.8,113a.5.5,0,0,1,0,.61l-6.19,8.06,9.75,2.88a.5.5,0,0,1,.35.49l-.26,10.17,9.58-3.39A.45.45,0,0,1,110.19,131.81Z" style="fill:#263238"></path><circle cx="116.36" cy="113.33" r="16.23" style="fill:#fff"></circle><path d="M116.36,130.05a16.73,16.73,0,1,1,16.73-16.72A16.74,16.74,0,0,1,116.36,130.05Zm0-32.45a15.73,15.73,0,1,0,15.73,15.73A15.74,15.74,0,0,0,116.36,97.6Z" style="fill:#263238"></path></g><g id="freepik--Letters--inject-46"><path d="M111.26,185v-.87c1.65,0,2-.09,2.52-.41a1.33,1.33,0,0,0,.64-1.1,9.61,9.61,0,0,0-.87-3.21l-1.87-4.31h-12l-2.11,5.23a6,6,0,0,0-.41,1.92c0,1.42,1,1.88,3.21,1.88V185H91.24v-.87c2.66-.28,3.07-1.24,5.77-7.65l9.44-22.36h.92l11.27,25.79c1.28,3,1.93,3.94,4.31,4.22V185Zm-5.54-24.38-5.27,12.6H111Z" style="fill:#263238"></path><path d="M142.94,183.27a4.76,4.76,0,0,1-4.13,2.2c-1.69,0-2.7-.92-2.93-3.35h0c-2.43,2.75-4.68,3.35-6.65,3.35a4.46,4.46,0,0,1-4.81-4.77,6.46,6.46,0,0,1,3.21-5.36c1.37-.91,3.07-1.79,8.25-3.71v-2.47c0-2.85-1.52-4.13-3.58-4.13-1.83,0-3.21,1-3.21,2.25,0,.82.28,1,.28,1.92a2.11,2.11,0,0,1-2.11,1.88,2.08,2.08,0,0,1-2-2.11,4.53,4.53,0,0,1,2.34-3.66,10,10,0,0,1,5.27-1.38c2.56,0,4.31.73,5.41,2.06s1.28,2.3,1.28,5.09v8.75c0,2.11.59,3,1.42,3a2.81,2.81,0,0,0,2-.87Zm-7.1-10.54a17.61,17.61,0,0,0-5.87,3,4.46,4.46,0,0,0-1.56,3.53c0,2.43,1.38,3.53,3.17,3.53a5,5,0,0,0,2.65-.73,2.93,2.93,0,0,0,1.61-2.89Z" style="fill:#263238"></path><path d="M146.46,245.31a7.32,7.32,0,0,1,.64,3.6c0,5.92-6.49,11.56-13,11.56a10.57,10.57,0,0,1-2.19-.21,1.37,1.37,0,0,0-.49-.07,3,3,0,0,0-2.54,2.89c0,1.27,1.91,2.19,5,3,6.77,1.63,10,4.73,10,9,0,6.13-5.43,10.65-14.81,10.65-7.19,0-11.77-2.54-11.77-7.62,0-3.59,1.34-5.5,8.25-9.66a3.48,3.48,0,0,1-1.91-2.75c0-2,1.62-4.16,5.43-5.92-3.95-1.41-5.57-3.95-5.57-7.62,0-7.19,7.05-12.06,14.18-12.06a11.74,11.74,0,0,1,6.91,2,2.2,2.2,0,0,0,1.13.56h4.23v2.75Zm-16.92,24.61c-.92-.28-1.63-.49-2.4-.77-.64,0-3.6,2.39-4.59,3.66a6,6,0,0,0-1.41,4.09c0,4.94,3.32,7.2,9,7.2s9.52-3,9.52-6.63C139.62,274.22,137.08,272.25,129.54,269.92Zm8-28.35c-4.38,0-8.61,5.15-8.61,12.13,0,3.32,1.55,5.29,4.23,5.29,2.4,0,4.31-1.27,6-4.16a16.51,16.51,0,0,0,2.33-8.25C141.53,242.84,140.19,241.57,137.58,241.57Z" style="fill:#263238"></path><path d="M202,116.38c6-7.52,7.56-9.94,7.56-11.91,0-.55-.28-.92-1-1.61a2.43,2.43,0,0,1-1-1.88,1.66,1.66,0,0,1,1.79-1.42,2.42,2.42,0,0,1,2.38,2.57c0,2.93-3.39,8.29-9.72,16l-.41.51c-1.24,1.51-1.65,2-2.06,2s-.41-.42-.5-1.61l-1.33-14.2-4.08,7c-.83,1.38-1.65,2.89-2.52,4.54-1.65,3.16-2.43,4.31-2.93,4.31s-.51-.37-.6-2.16l-.18-4.17a73.81,73.81,0,0,0-1.24-11.09c-.41-1.69-.83-1.92-2.15-1.92h-1.29v-.6c1.42-.23,3-.41,4.36-.78a9.56,9.56,0,0,1,1.32-.32c.51,0,.55.09.87,1.56A97.92,97.92,0,0,1,190.77,114l8.8-13.93c.23-.37.37-.46.59-.46s.37.14.37.64Z" style="fill:#263238"></path></g><g id="freepik--speech-bubbles--inject-46"><path d="M376.55,242.38c0-10.15-10.13-18.38-22.63-18.38s-22.62,8.23-22.62,18.38,10.13,18.38,22.62,18.38a27.69,27.69,0,0,0,7.27-1l8.57,10.58.43-15.23A16.71,16.71,0,0,0,376.55,242.38Z" style="fill:#263238"></path><path d="M378.6,240.32c0-10.15-10.12-18.38-22.62-18.38s-22.62,8.23-22.62,18.38S343.49,258.7,356,258.7a27.39,27.39,0,0,0,7.27-1l8.57,10.59.43-15.24A16.7,16.7,0,0,0,378.6,240.32Z" style="fill:#fff"></path><path d="M371.82,268.82a.51.51,0,0,1-.39-.19l-8.37-10.34a27.5,27.5,0,0,1-7.08.91c-12.75,0-23.12-8.47-23.12-18.88s10.37-18.88,23.12-18.88,23.12,8.47,23.12,18.88a17.1,17.1,0,0,1-6.35,13l-.43,15a.51.51,0,0,1-.34.46Zm-8.57-11.59a.48.48,0,0,1,.38.18l7.73,9.54.39-13.88a.53.53,0,0,1,.18-.37,16.19,16.19,0,0,0,6.17-12.38c0-9.86-9.92-17.88-22.12-17.88s-22.12,8-22.12,17.88S343.78,258.2,356,258.2a27,27,0,0,0,7.13-.95A.34.34,0,0,1,363.25,257.23Z" style="fill:#263238"></path><path d="M381.2,249.11c0-5.78,5.77-10.47,12.89-10.47S407,243.33,407,249.11s-5.77,10.47-12.89,10.47A15.92,15.92,0,0,1,390,259l-4.88,6-.25-8.68A9.52,9.52,0,0,1,381.2,249.11Z" style="fill:#263238"></path><path d="M380,247.94c0-5.79,5.77-10.48,12.89-10.48s12.89,4.69,12.89,10.48-5.77,10.47-12.89,10.47a15.5,15.5,0,0,1-4.14-.56l-4.88,6-.25-8.68A9.54,9.54,0,0,1,380,247.94Z" style="fill:#fff"></path><path d="M383.9,264.39a.41.41,0,0,1-.16,0,.49.49,0,0,1-.34-.46l-.24-8.46a9.94,9.94,0,0,1-3.63-7.5c0-6.05,6-11,13.39-11s13.39,4.93,13.39,11-6,11-13.39,11a15.83,15.83,0,0,1-3.95-.49l-4.68,5.78A.51.51,0,0,1,383.9,264.39Zm9-26.43c-6.83,0-12.39,4.48-12.39,10a9,9,0,0,0,3.44,6.89.47.47,0,0,1,.18.36l.21,7.33,4-5a.53.53,0,0,1,.53-.17,14.9,14.9,0,0,0,4,.54c6.83,0,12.39-4.47,12.39-10S399.75,238,392.92,238Z" style="fill:#263238"></path></g><g id="freepik--Rainbow--inject-46"><path d="M349.13,141.24c0,.56,0,1.12-.05,1.68H334.74a15.48,15.48,0,0,0,.09-1.68,16.36,16.36,0,0,0-32.71,0,15.48,15.48,0,0,0,.09,1.68H287.87c0-.56-.05-1.12-.05-1.68a30.66,30.66,0,0,1,61.31,0Z" style="fill:#263238"></path><path d="M345.82,141.24c0,.57,0,1.12-.06,1.68h-11a15.48,15.48,0,0,0,.09-1.68,16.36,16.36,0,0,0-32.71,0,15.48,15.48,0,0,0,.09,1.68h-11c0-.56-.06-1.11-.06-1.68a27.35,27.35,0,0,1,54.69,0Z" style="fill:#fff"></path><path d="M345.76,143.42h-11a.48.48,0,0,1-.37-.17.47.47,0,0,1-.12-.38c.05-.53.08-1.08.08-1.63a15.86,15.86,0,0,0-31.71,0,14.7,14.7,0,0,0,.09,1.63.45.45,0,0,1-.13.38.48.48,0,0,1-.37.17h-11a.5.5,0,0,1-.5-.46c0-.58-.06-1.14-.06-1.72a27.85,27.85,0,0,1,55.69,0c0,.58,0,1.14-.06,1.7A.5.5,0,0,1,345.76,143.42Zm-10.47-1h10c0-.39,0-.78,0-1.18a26.85,26.85,0,0,0-53.69,0c0,.4,0,.79,0,1.18h10c0-.39-.05-.78-.05-1.18a16.86,16.86,0,0,1,33.71,0C335.33,141.64,335.32,142,335.29,142.42Z" style="fill:#263238"></path><path d="M342,141.24c0,.57,0,1.12-.07,1.68h-7.16a15.48,15.48,0,0,0,.09-1.68,16.36,16.36,0,0,0-32.71,0,15.48,15.48,0,0,0,.09,1.68h-7.16c0-.56-.07-1.11-.07-1.68a23.5,23.5,0,0,1,47,0Z" style="fill:#263238"></path><path d="M337.87,141.24c0,.57,0,1.12-.08,1.68H333.7a15.48,15.48,0,0,0,.09-1.68c0-9-6.29-15.4-15.32-15.4s-15.25,6.37-15.25,15.4a15.48,15.48,0,0,0,.09,1.68h-4.15c-.05-.56-.08-1.11-.08-1.68a19.4,19.4,0,0,1,38.79,0Z" style="fill:#fff"></path><path d="M337.79,143.42H333.7a.5.5,0,0,1-.37-.17.47.47,0,0,1-.12-.38c.05-.54.08-1.08.08-1.63,0-8.77-6.09-14.9-14.82-14.9s-14.75,6.13-14.75,14.9a14.57,14.57,0,0,0,.09,1.63.51.51,0,0,1-.5.55h-4.15a.51.51,0,0,1-.5-.46c-.05-.62-.08-1.18-.08-1.72a19.9,19.9,0,0,1,39.79,0c0,.57,0,1.11-.08,1.67A.53.53,0,0,1,337.79,143.42Zm-3.54-1h3.08c0-.4,0-.79,0-1.18a18.9,18.9,0,0,0-37.79,0c0,.38,0,.76,0,1.18h3.14c0-.39,0-.78,0-1.18,0-9.36,6.48-15.9,15.75-15.9s15.82,6.54,15.82,15.9C334.29,141.64,334.28,142,334.25,142.42Z" style="fill:#263238"></path><circle cx="286.91" cy="142.73" r="8.18" style="fill:#fff"></circle><path d="M286.91,151.41a8.68,8.68,0,1,1,8.68-8.68A8.68,8.68,0,0,1,286.91,151.41Zm0-16.35a7.68,7.68,0,1,0,7.68,7.67A7.68,7.68,0,0,0,286.91,135.06Z" style="fill:#263238"></path><path d="M299.82,147.19a6.44,6.44,0,1,1-6.43-6.44A6.43,6.43,0,0,1,299.82,147.19Z" style="fill:#fff"></path><path d="M293.39,154.12a6.94,6.94,0,1,1,6.93-6.93A6.95,6.95,0,0,1,293.39,154.12Zm0-12.87a5.94,5.94,0,1,0,5.93,5.94A5.95,5.95,0,0,0,293.39,141.25Z" style="fill:#263238"></path><path d="M313.72,142a7,7,0,1,1-7-7A7,7,0,0,1,313.72,142Z" style="fill:#fff"></path><path d="M306.68,149.5a7.54,7.54,0,1,1,7.54-7.53A7.55,7.55,0,0,1,306.68,149.5Zm0-14.07a6.54,6.54,0,1,0,6.54,6.54A6.56,6.56,0,0,0,306.68,135.43Z" style="fill:#263238"></path><path d="M309.08,148.09A7.08,7.08,0,1,1,302,141,7.07,7.07,0,0,1,309.08,148.09Z" style="fill:#fff"></path><path d="M302,155.66a7.57,7.57,0,1,1,7.57-7.57A7.58,7.58,0,0,1,302,155.66Zm0-14.14a6.57,6.57,0,1,0,6.57,6.57A6.58,6.58,0,0,0,302,141.52Z" style="fill:#263238"></path><circle cx="330.82" cy="142.73" r="8.18" style="fill:#fff"></circle><path d="M330.82,151.41a8.68,8.68,0,1,1,8.68-8.68A8.69,8.69,0,0,1,330.82,151.41Zm0-16.35a7.68,7.68,0,1,0,7.68,7.67A7.69,7.69,0,0,0,330.82,135.06Z" style="fill:#263238"></path><path d="M343.74,147.19a6.44,6.44,0,1,1-6.44-6.44A6.43,6.43,0,0,1,343.74,147.19Z" style="fill:#fff"></path><path d="M337.3,154.12a6.94,6.94,0,1,1,6.94-6.93A6.94,6.94,0,0,1,337.3,154.12Zm0-12.87a5.94,5.94,0,1,0,5.94,5.94A5.94,5.94,0,0,0,337.3,141.25Z" style="fill:#263238"></path><path d="M357.63,142a7,7,0,1,1-7-7A7,7,0,0,1,357.63,142Z" style="fill:#fff"></path><path d="M350.59,149.5a7.54,7.54,0,1,1,7.54-7.53A7.54,7.54,0,0,1,350.59,149.5Zm0-14.07a6.54,6.54,0,1,0,6.54,6.54A6.55,6.55,0,0,0,350.59,135.43Z" style="fill:#263238"></path><path d="M353,148.09a7.07,7.07,0,1,1-7.07-7.07A7.06,7.06,0,0,1,353,148.09Z" style="fill:#fff"></path><path d="M345.92,155.66a7.57,7.57,0,1,1,7.57-7.57A7.58,7.58,0,0,1,345.92,155.66Zm0-14.14a6.57,6.57,0,1,0,6.57,6.57A6.58,6.58,0,0,0,345.92,141.52Z" style="fill:#263238"></path></g><g id="freepik--Bottle--inject-46"><path d="M332.8,373.76,308,366.51l-18.09-18.94-8.51,8.13,18.09,18.94,6.1,25.08a4.79,4.79,0,0,0,8,2.34l21.18-20.23A4.8,4.8,0,0,0,332.8,373.76Z" style="fill:#fff"></path><path d="M310.29,403.89a5.32,5.32,0,0,1-5.16-4.05l-6.08-24.95-18-18.85a.5.5,0,0,1-.14-.35.49.49,0,0,1,.15-.35l8.52-8.13a.46.46,0,0,1,.36-.14.53.53,0,0,1,.35.15l18,18.85,24.65,7.22h0a5.29,5.29,0,0,1,2.17,8.9l-21.19,20.23A5.22,5.22,0,0,1,310.29,403.89Zm-28.16-48.18,17.74,18.58a.57.57,0,0,1,.12.23l6.11,25.09a4.29,4.29,0,0,0,7.13,2.09l21.19-20.23a4.3,4.3,0,0,0-1.76-7.23L307.88,367a.61.61,0,0,1-.22-.13l-17.74-18.59Z" style="fill:#263238"></path><path d="M316.09,372.85,305.47,383l3.85,15.82a1,1,0,0,0,1.62.48l21.18-20.23a.94.94,0,0,0,.28-.94.93.93,0,0,0-.68-.7Z" style="fill:#263238"></path></g><g id="freepik--Palette--inject-46"><path d="M332.87,312.34a10.59,10.59,0,0,0-8.49-10.87c-4-.82-10.21-2.94-10.59-8.21-.56-7.85,2.24-20.47-6.45-23.83s-18.23-.56-26.64,14.58-.56,40.38,17.95,45.71,33.65-7.85,34.21-17.11C332.86,312.52,332.87,312.43,332.87,312.34Z" style="fill:#263238"></path><circle cx="301.45" cy="279.24" r="6.17" style="fill:#fff"></circle><path d="M301.45,285.91a6.67,6.67,0,1,1,6.67-6.67A6.67,6.67,0,0,1,301.45,285.91Zm0-12.34a5.67,5.67,0,1,0,5.67,5.67A5.68,5.68,0,0,0,301.45,273.57Z" style="fill:#263238"></path><circle cx="288.41" cy="297.05" r="6.03" style="fill:#fff"></circle><path d="M288.41,303.58a6.53,6.53,0,1,1,6.53-6.53A6.54,6.54,0,0,1,288.41,303.58Zm0-12.06a5.53,5.53,0,1,0,5.53,5.53A5.54,5.54,0,0,0,288.41,291.52Z" style="fill:#263238"></path><circle cx="293.74" cy="313.6" r="6.03" style="fill:#fff"></circle><path d="M293.74,320.12a6.53,6.53,0,1,1,6.53-6.52A6.53,6.53,0,0,1,293.74,320.12Zm0-12.05a5.53,5.53,0,1,0,5.53,5.53A5.54,5.54,0,0,0,293.74,308.07Z" style="fill:#263238"></path><circle cx="308.88" cy="320.33" r="6.03" style="fill:#fff"></circle><path d="M308.88,326.86a6.53,6.53,0,1,1,6.53-6.53A6.54,6.54,0,0,1,308.88,326.86Zm0-12.06a5.53,5.53,0,1,0,5.53,5.53A5.54,5.54,0,0,0,308.88,314.8Z" style="fill:#263238"></path></g><g id="freepik--Circles--inject-46"><circle cx="162.73" cy="167.9" r="10.63" transform="translate(-71.06 164.24) rotate(-45)" style="fill:#FFC100"></circle><path d="M147.34,146.65a2.57,2.57,0,1,1-2.57-2.57A2.57,2.57,0,0,1,147.34,146.65Z" style="fill:#FFC100"></path><circle cx="256.92" cy="144.45" r="7.7" style="fill:#FFC100"></circle><circle cx="77.34" cy="214.81" r="9.16" transform="translate(-129.25 117.6) rotate(-45)" style="fill:#FFC100"></circle><circle cx="261.68" cy="370.57" r="8.06" transform="translate(-121.89 128.35) rotate(-22.5)" style="fill:#FFC100"></circle><circle cx="375.66" cy="386.33" r="6.23" style="fill:#FFC100"></circle><circle cx="389.96" cy="414.55" r="5.13" style="fill:#FFC100"></circle><path d="M241.89,236.8a4.77,4.77,0,1,1-4.76-4.76A4.76,4.76,0,0,1,241.89,236.8Z" style="fill:#FFC100"></path><circle cx="186.18" cy="144.81" r="10.99" transform="translate(-46.12 185.69) rotate(-47.86)" style="fill:#FFC100"></circle></g><g id="freepik--Shapes--inject-46"><path d="M427.63,428.48s-19.33,8.22-36.23,5.8-38.17-30.43-32.85-68.59,15.94-59.42,2.9-82.61C342,248.5,291.89,265.21,284.16,230c0,0-1.94-18.84,15.94-22.71s19.8,9.18,25.6,14.49S348.89,214,345,199s-14.49-19.32-21.25-19.32a123.66,123.66,0,0,0-14,1s12.56-5.31,9.18-13.52-25.61-7.25-39.61,13.52-18.36,54.11,5.79,71,53.14,15.46,59.42,38.65-16.91,45.41-6.28,93.23S381.88,453.23,427.63,428.48Z" style="fill:#FFC100"></path><path d="M427.63,428.48s-19.33,8.22-36.23,5.8c-12.88-1.84-28.27-18.54-32.53-43.25.59,11.29,2.36,26.65,7.33,40C382,441.61,402.93,441.84,427.63,428.48Z" style="fill:#263238"></path><path d="M359.93,354.4l.49-.5c2.11-12,4.48-22.2,5.92-31.42-17.42,23.57-24.38,49.79-27.1,65.15a99.13,99.13,0,0,0,7.91,21.16C347.32,375.55,359.93,354.4,359.93,354.4Z" style="fill:#263238"></path><path d="M272.56,255.07s-52.46-13.83-78.25-6.77C159,258,147,289.36,136.82,297.09s-17.39,8.21-21.74-6.76-.48-31.4-15.45-32.37S75,272.46,81.75,289.36s19.81,25.12,31.89,23.19,21.73-7.25,25.11-10.63,2.9,17.88-1.44,28.5-14,15.94-18.36,15.94H114.6s10.63-9.17,8.7-16.42-16.91-7.73-23.67,1-1,26.08,19.8,27,28.5-16.91,28.5-16.91,7.73,22.7,30.92,15.46,18.84-34.78,10.14-40.58-16.42-3.86-15.94.48,12.56,3.87,10.15,11.6-15.46,6.28-19.81-1.45-7.25-29.47,7.25-50.72S232.47,250.24,272.56,255.07Z" style="fill:#FFC100"></path><path d="M285.12,265.21s-22.22,15.94-22.22,38.64,23.67,21.74,25.12,28,0,13.53-13.53,18.36-26.08-1-33.81-14c0,0-5.31,12.08-16.91,8.21s-10.62-21.25-2.89-40.09S261,258,285.12,265.21Z" style="fill:#FFC100"></path><path d="M247.44,226.08s-29-17.39-23.67-53.62,29-61.35,14.5-90.33c-19-38-67.15-27-83.57,1s8.69,52.17,32.36,47.34c0,0-18.84-10.63-12.56-27.54S207.35,83.58,216,99s-10.62,38.16-11.11,66.18S219.91,221.73,247.44,226.08Z" style="fill:#FFC100"></path><path d="M237.69,51A9.72,9.72,0,0,0,241,60.41c5.15,4.43,14.65,15.14,14.65,33.8,0,25.6-6.28,30.91-6.28,30.91s23.18-13,33.33-29.46,2.9-33.82-1.94-36.72-9.17,4.35-9.66,8.7a75.52,75.52,0,0,1-1.93,9.66s-2.41-24.64-15.94-31.88C245.9,41.49,239.23,44,237.69,51Z" style="fill:#FFC100"></path></g><g id="freepik--Hearts--inject-46"><path d="M389.31,284.92c-4.77-3.88-12.49-2.28-17.25,3.58a15.94,15.94,0,0,0-3.13,6.14,16.06,16.06,0,0,0-3.12-6.14c-4.77-5.86-12.49-7.46-17.25-3.58s-4.77,11.76,0,17.62a43.94,43.94,0,0,0,3.11,3.43l17.07,14.37,17.52-14.89a16.76,16.76,0,0,0,3.06-2.91C394.07,296.68,394.07,288.8,389.31,284.92Z" style="fill:#263238"></path><path d="M316.14,224.48c-2.55-2.08-6.7-1.22-9.26,1.93a8.59,8.59,0,0,0-1.68,3.29,8.59,8.59,0,0,0-1.68-3.29c-2.55-3.15-6.7-4-9.26-1.93s-2.56,6.32,0,9.47a23,23,0,0,0,1.67,1.84l9.17,7.72,9.4-8a9,9,0,0,0,1.65-1.56C318.7,230.8,318.7,226.57,316.14,224.48Z" style="fill:#263238"></path><path d="M159.33,362.25c-2.56-2.08-6.7-1.22-9.26,1.92a8.7,8.7,0,0,0-1.68,3.3,8.7,8.7,0,0,0-1.68-3.3c-2.56-3.14-6.7-4-9.26-1.92s-2.56,6.32,0,9.47c.47.58,1,1.15,1.66,1.84l9.17,7.72,9.41-8a9,9,0,0,0,1.65-1.56C161.89,368.57,161.89,364.34,159.33,362.25Z" style="fill:#263238"></path><path d="M391.69,281.94c-4.77-3.87-12.49-2.27-17.25,3.58a16,16,0,0,0-3.13,6.14,16.13,16.13,0,0,0-3.12-6.14c-4.77-5.85-12.49-7.45-17.25-3.58s-4.77,11.77,0,17.62A43.92,43.92,0,0,0,354,303l17.07,14.37,17.52-14.9a16.41,16.41,0,0,0,3.06-2.91C396.45,293.71,396.45,285.82,391.69,281.94Z" style="fill:#fff"></path><path d="M371.11,317.87a.49.49,0,0,1-.32-.12l-17.07-14.37a44.16,44.16,0,0,1-3.17-3.5c-4.93-6.06-4.9-14.28.07-18.32s13-2.41,17.95,3.65a16.66,16.66,0,0,1,2.74,4.78,16.66,16.66,0,0,1,2.74-4.78c4.93-6.06,13-7.7,17.95-3.65s5,12.26.08,18.32a17.6,17.6,0,0,1-3.16,3l-17.48,14.87A.52.52,0,0,1,371.11,317.87Zm-14-37.54a9.2,9.2,0,0,0-5.87,2c-4.54,3.7-4.51,11.29.07,16.92a43.91,43.91,0,0,0,3.07,3.39l16.72,14.07,17.19-14.62a16.52,16.52,0,0,0,3-2.84c4.58-5.63,4.61-13.22.07-16.92s-12-2.12-16.55,3.51a15.55,15.55,0,0,0-3,6,.52.52,0,0,1-1,0,15.72,15.72,0,0,0-3-6A14.18,14.18,0,0,0,357.12,280.33Z" style="fill:#263238"></path><path d="M318.52,221.51c-2.55-2.08-6.7-1.22-9.26,1.92a8.63,8.63,0,0,0-1.68,3.3,8.63,8.63,0,0,0-1.68-3.3c-2.56-3.14-6.7-4-9.26-1.92s-2.56,6.32,0,9.46a24.76,24.76,0,0,0,1.66,1.85l9.17,7.71,9.41-8a9.37,9.37,0,0,0,1.65-1.57C321.08,227.83,321.08,223.59,318.52,221.51Z" style="fill:#fff"></path><path d="M307.47,241a.5.5,0,0,1-.32-.11L298,233.2a25.09,25.09,0,0,1-1.73-1.91c-2.73-3.35-2.7-7.92.07-10.17a6,6,0,0,1,5.05-1.1,8.75,8.75,0,0,1,4.92,3.1,9.43,9.43,0,0,1,1.29,2.09,9.43,9.43,0,0,1,1.29-2.09,8.75,8.75,0,0,1,4.92-3.1,6,6,0,0,1,5,1.1h0c2.77,2.25,2.8,6.82.07,10.17a9.38,9.38,0,0,1-1.74,1.65l-9.37,8A.49.49,0,0,1,307.47,241ZM300,220.87a4.67,4.67,0,0,0-3,1c-2.34,1.9-2.31,5.83.07,8.76a23,23,0,0,0,1.64,1.8l8.81,7.42,9.09-7.73a9,9,0,0,0,1.58-1.49c2.38-2.93,2.41-6.86.07-8.76h0A5,5,0,0,0,314,221a7.72,7.72,0,0,0-4.34,2.75,8.08,8.08,0,0,0-1.58,3.1.52.52,0,0,1-1,0,8.23,8.23,0,0,0-1.58-3.1,7.74,7.74,0,0,0-4.35-2.75A5.67,5.67,0,0,0,300,220.87Z" style="fill:#263238"></path><path d="M161.71,359.28c-2.56-2.08-6.7-1.22-9.26,1.92a8.63,8.63,0,0,0-1.68,3.3,8.63,8.63,0,0,0-1.68-3.3c-2.56-3.14-6.7-4-9.26-1.92s-2.56,6.32,0,9.46a24.76,24.76,0,0,0,1.66,1.85l9.17,7.71,9.41-8a9,9,0,0,0,1.64-1.57C164.27,365.6,164.27,361.36,161.71,359.28Z" style="fill:#fff"></path><path d="M150.66,378.8a.54.54,0,0,1-.32-.11L141.17,371a24.89,24.89,0,0,1-1.73-1.91,8.73,8.73,0,0,1-2-5.45,5.72,5.72,0,0,1,7.15-5.82,8.78,8.78,0,0,1,4.92,3.09,9.73,9.73,0,0,1,1.29,2.1,9.73,9.73,0,0,1,1.29-2.1,8.78,8.78,0,0,1,4.92-3.09,5.72,5.72,0,0,1,7.15,5.82,8.73,8.73,0,0,1-2,5.45,9.38,9.38,0,0,1-1.74,1.65l-9.37,8A.52.52,0,0,1,150.66,378.8Zm-7.51-20.16a4.67,4.67,0,0,0-3,1,4.93,4.93,0,0,0-1.73,3.94,7.75,7.75,0,0,0,1.8,4.82,22.8,22.8,0,0,0,1.64,1.8l8.81,7.42,9.09-7.73a9,9,0,0,0,1.58-1.49,7.75,7.75,0,0,0,1.8-4.82,4.93,4.93,0,0,0-1.73-3.94h0a5,5,0,0,0-4.22-.9,7.64,7.64,0,0,0-4.34,2.75,8.11,8.11,0,0,0-1.59,3.1.51.51,0,0,1-1,0,8.11,8.11,0,0,0-1.59-3.1,7.64,7.64,0,0,0-4.34-2.75A5.67,5.67,0,0,0,143.15,358.64Z" style="fill:#263238"></path></g><g id="freepik--musical-notes--inject-46"><path d="M272.91,426.38l18.46-35.49-.6-.3-.79-.42-21.09-10.93-1.39-.72-3.68,7.09-10.48,20.22a10.44,10.44,0,0,0-5.19-5.66c-4.5-2.34-9.57-1.49-11.32,1.88s.48,8,5,10.34,9.56,1.49,11.31-1.89a5.26,5.26,0,0,0,.57-2l11.51-22.21,21.09,10.93L273,423a10.31,10.31,0,0,0-5.35-6.18c-4.5-2.33-9.57-1.48-11.32,1.89s.48,8,5,10.34,9.57,1.49,11.32-1.89A5.94,5.94,0,0,0,272.91,426.38Z" style="fill:#263238"></path><path d="M226,282.86l5.77-15.33-.25-.09-.35-.13-9.11-3.41-.6-.23-1.14,3.06-3.28,8.73a4.34,4.34,0,0,0-2.38-2c-1.95-.72-4-.13-4.51,1.33s.58,3.23,2.53,3.95,4,.14,4.51-1.32a2.08,2.08,0,0,0,.13-.82l3.6-9.59,9.1,3.41-4.16,11.12a4.19,4.19,0,0,0-2.48-2.25c-1.94-.73-4-.14-4.51,1.32s.59,3.23,2.53,4,4,.14,4.51-1.32A1.89,1.89,0,0,0,226,282.86Z" style="fill:#263238"></path><path d="M204,250.86l5.77-15.33-.26-.1-.34-.13L200,231.89l-.6-.23-1.15,3.07L195,243.46a4.25,4.25,0,0,0-2.39-2.05c-1.94-.73-4-.14-4.5,1.32s.58,3.23,2.53,4,4,.13,4.5-1.32a2.16,2.16,0,0,0,.14-.83l3.59-9.59,9.11,3.41-4.16,11.12a4.25,4.25,0,0,0-2.48-2.25c-2-.73-4-.13-4.51,1.32s.59,3.23,2.53,4,4,.14,4.51-1.32A2,2,0,0,0,204,250.86Z" style="fill:#263238"></path><path d="M202.92,319.23,219.53,288l-.53-.28-.7-.37-18.53-9.83-1.23-.65-3.3,6.23-9.43,17.77a9.26,9.26,0,0,0-4.54-5.05c-4-2.1-8.44-1.4-10,1.57s.35,7.07,4.31,9.17,8.44,1.4,10-1.57a4.58,4.58,0,0,0,.52-1.72l10.36-19.52L215,293.62l-12,22.63a9,9,0,0,0-4.68-5.5c-3.95-2.1-8.43-1.4-10,1.57s.36,7.07,4.31,9.17,8.44,1.4,10-1.57A5.93,5.93,0,0,0,202.92,319.23Z" style="fill:#263238"></path></g><g id="freepik--Stars--inject-46"><polygon points="167.25 190.77 173.42 203.28 187.22 205.28 177.23 215.02 179.59 228.77 167.25 222.28 154.9 228.77 157.26 215.02 147.27 205.28 161.07 203.28 167.25 190.77" style="fill:#263238"></polygon><polygon points="255.63 167.66 256.68 175.57 263.79 179.19 256.59 182.63 255.34 190.51 249.85 184.72 241.97 185.97 245.77 178.96 242.14 171.85 249.99 173.3 255.63 167.66" style="fill:#263238"></polygon><polygon points="224.52 351.88 225.57 359.78 232.68 363.4 225.48 366.84 224.24 374.72 218.74 368.94 210.86 370.19 214.66 363.18 211.03 356.07 218.88 357.52 224.52 351.88" style="fill:#263238"></polygon><polygon points="113.29 225.49 114.34 233.39 121.45 237.01 114.25 240.45 113.01 248.33 107.51 242.55 99.63 243.8 103.43 236.79 99.81 229.68 107.65 231.13 113.29 225.49" style="fill:#263238"></polygon></g><g id="freepik--Hand--inject-46"><path d="M500.77,379.31s5-6.8,4.73-13.3-12.41-13.89-12.41-13.89l-8.87,10.05S497.52,372.22,500.77,379.31Z" style="fill:#dbdbdb"></path><path d="M500.77,379.81h0a.49.49,0,0,1-.4-.29c-3.17-6.9-16.27-16.85-16.4-16.95a.52.52,0,0,1-.2-.35.51.51,0,0,1,.12-.38l8.87-10a.5.5,0,0,1,.64-.09c.5.3,12.34,7.6,12.65,14.29s-4.62,13.33-4.83,13.62A.48.48,0,0,1,500.77,379.81ZM485,362.1c2.26,1.74,12.45,9.84,15.89,16.23,1.22-1.87,4.39-7.22,4.16-12.3-.25-5.55-9.84-12-11.82-13.26Z" style="fill:#263238"></path><path d="M414.77,321.09s-5.91,12.41-2.66,21.28,33.1,39.9,42.56,49.35S465.6,408,468.56,408.57s9.16-5.91,10.34-12.41-8.57-18-8.57-18,16.85,5.61,19.21,9.16,6.5,3.84,9.46-.89,2.66-8-3-15.66a40,40,0,0,0-11.52-10.93s15.07-14.49,26.89-18.92,17.14-22.75,3.25-42.85S468,276.76,451.12,287.69,414.77,321.09,414.77,321.09Z" style="fill:#dbdbdb"></path><path d="M469,409.11a2.54,2.54,0,0,1-.49-.05c-1.59-.32-2.67-2-4.47-4.76a68,68,0,0,0-9.68-12.22c-10-10-39.43-40.69-42.67-49.54s2.43-21.15,2.68-21.66a.47.47,0,0,1,.07-.12c.2-.22,19.75-22.64,36.46-33.48,17.81-11.57,50.43-9.47,64.22,10.47,7.49,10.84,10.12,22.36,7.22,31.62-1.83,5.83-5.63,10.09-10.7,12-10.43,3.91-23.59,15.88-26.25,18.36a41.79,41.79,0,0,1,11.1,10.73c5.56,7.59,6.19,11.08,3,16.22-1.51,2.41-3.46,3.75-5.49,3.78a5.79,5.79,0,0,1-4.81-2.88c-1.67-2.51-11.89-6.5-17.32-8.41,2.56,3.28,8.57,11.7,7.59,17.09A20.09,20.09,0,0,1,471.87,408,5.43,5.43,0,0,1,469,409.11Zm-53.76-87.74c-.43.94-5.64,12.57-2.61,20.83,3.18,8.67,32.44,39.17,42.44,49.17a69,69,0,0,1,9.81,12.39c1.59,2.46,2.65,4.08,3.83,4.32a4,4,0,0,0,2.65-.92,19,19,0,0,0,7.1-11.09c1.12-6.2-8.37-17.5-8.46-17.62a.48.48,0,0,1,0-.6.51.51,0,0,1,.57-.2c.69.24,17,5.72,19.47,9.36a4.78,4.78,0,0,0,3.9,2.44h.06c1.68,0,3.33-1.2,4.65-3.31,2.76-4.41,2.73-7.36-2.93-15.1a40.13,40.13,0,0,0-11.37-10.8.5.5,0,0,1-.25-.37.47.47,0,0,1,.15-.42c.15-.15,15.28-14.61,27.06-19,4.78-1.79,8.37-5.82,10.1-11.35,2.81-9,.23-20.17-7.08-30.75-6.3-9.11-17.07-15-30.31-16.59-12-1.44-24.17.95-32.55,6.38C435.19,298.63,416.26,320.14,415.19,321.37Z" style="fill:#263238"></path><path d="M705.28,333.21s-5.61.59-28.37,4.43-52,14.19-76.25,22.46-25.12,4.43-44.33-.89S521.75,347.39,515,342.07s-21.28-25.71-21.28-25.71.59-4.73-4.73-9.75-22.17-9.16-22.17-9.16c.43-.36-3.54,2.66-6.79,4.73-5.14,3.27-15.37,10.93-15.37,10.93s8,33.91,3.84,47.58S437.23,387,434,388.18s-6.5.29-6.21-6.5-5.61-29.56-7.09-39.9-14.48-28.08-11.23-39.6,16-19.8,16-19.8a214.64,214.64,0,0,0,41.08-32.22c20.69-20.69,38.42-25.71,49.06-22.46s43.14,34.87,71.81,35.47,83.93-25.12,83.93-25.12" style="fill:#fff"></path><path d="M431.74,389.12a4,4,0,0,1-2.41-.74c-1.51-1.11-2.2-3.37-2.06-6.73.18-4.08-1.92-14-4-23.69-1.31-6.2-2.55-12.06-3.13-16.11-.55-3.85-2.75-8.82-5.09-14.08-3.84-8.62-8.19-18.4-6.12-25.73,3.26-11.57,15.64-19.74,16.17-20.08a215.79,215.79,0,0,0,41-32.15c18.1-18.1,36.62-26.54,49.56-22.59,3.45,1.06,9,4.92,16,9.81,15.29,10.65,36.23,25.23,55.67,25.64h1c28.49,0,82.2-24.83,82.74-25.09a.5.5,0,0,1,.43.91c-.55.25-54.46,25.17-83.18,25.18h-1c-19.74-.41-40.83-15.1-56.22-25.82-7-4.84-12.44-8.66-15.73-9.67-12.57-3.84-30.73,4.51-48.56,22.34a217.36,217.36,0,0,1-41.19,32.29c-.09.07-12.56,8.29-15.72,19.5-2,7,2.3,16.59,6.07,25.06,2.37,5.32,4.6,10.35,5.17,14.34s1.81,9.86,3.12,16c2,9.7,4.17,19.74,4,23.95-.13,3,.44,5,1.65,5.87s2.76.55,3.89.14c3-1.1,10-13.45,14.17-27.16,4.08-13.39-3.77-47-3.85-47.32a.51.51,0,0,1,.19-.52c.1-.08,10.3-7.71,15.4-11,2.34-1.49,5.06-3.47,6.22-4.32l.52-.37h0c.31-.19.49-.22.67,0,2.1.53,17.08,4.43,22.16,9.23,4.88,4.61,5,9,4.9,10,1.33,1.86,14.71,20.48,21.07,25.46,6.89,5.39,22.67,11.92,41.2,17.05,3.51,1,6.4,1.89,8.95,2.7,11.22,3.57,15.42,4.91,35.09-1.8l5.55-1.9c23.29-8,49.69-17,70.78-20.58,22.51-3.8,28.34-4.43,28.4-4.44a.5.5,0,1,1,.1,1c-.05,0-5.88.64-28.34,4.43-21,3.55-47.36,12.58-70.62,20.55l-5.55,1.9c-20,6.82-24.26,5.45-35.72,1.81-2.54-.81-5.41-1.73-8.9-2.69-18.94-5.25-34.47-11.69-41.55-17.23-6.78-5.31-20.79-25-21.38-25.82a.54.54,0,0,1-.09-.35s.47-4.56-4.58-9.33c-4.84-4.57-19.76-8.48-21.72-9l-.35.25c-1.17.85-3.91,2.85-6.28,4.36-4.6,2.93-13.44,9.5-15.07,10.72.85,3.69,7.75,34.43,3.76,47.52s-11.14,26.48-14.79,27.81A7.27,7.27,0,0,1,431.74,389.12Z" style="fill:#263238"></path><polygon points="513.87 237.83 488.95 306.61 485.89 305.6 513.87 237.83" style="fill:#263238"></polygon><path d="M428.81,386.19s.74-1.56,4-4.51,5-9.17,2.36-12.71-7.59-2.08-7.68,5.32C427.37,382.86,428.81,386.19,428.81,386.19Z" style="fill:#fff"></path><path d="M428.82,386.68h0a.48.48,0,0,1-.44-.3c-.06-.13-1.49-3.52-1.38-12.1,0-3.92,1.46-6.71,3.78-7.47a4.34,4.34,0,0,1,4.8,1.86c2.81,3.74,1,10.26-2.43,13.38-3.1,2.82-3.86,4.34-3.86,4.35A.51.51,0,0,1,428.82,386.68Zm3.1-19.06a2.8,2.8,0,0,0-.85.14c-1.46.48-3,2.44-3.09,6.53A40.2,40.2,0,0,0,429,385a25.92,25.92,0,0,1,3.49-3.72c3.11-2.84,4.8-8.71,2.3-12A3.65,3.65,0,0,0,431.92,367.62Z" style="fill:#263238"></path><path d="M444.62,313.11s-2.37-8-4.14-11.23" style="fill:#fff"></path><path d="M444.62,313.61a.49.49,0,0,1-.48-.36c0-.08-2.37-8-4.1-11.13a.5.5,0,1,1,.88-.48c1.78,3.26,4.08,11,4.18,11.33a.5.5,0,0,1-.34.62Z" style="fill:#263238"></path><path d="M466.78,297.45s6.21-4.73,9.46-10.35" style="fill:#fff"></path><path d="M466.78,298a.47.47,0,0,1-.39-.2.5.5,0,0,1,.09-.7c.06-.05,6.17-4.74,9.33-10.2a.5.5,0,0,1,.86.5c-3.26,5.64-9.33,10.3-9.58,10.49A.51.51,0,0,1,466.78,298Z" style="fill:#263238"></path><path d="M411.81,309.77a.49.49,0,0,1-.49-.41c0-.08-1.15-7.23,7.09-10.89a.5.5,0,1,1,.4.91c-7.5,3.34-6.55,9.54-6.5,9.8a.51.51,0,0,1-.41.58Z" style="fill:#263238"></path><path d="M415.06,299.13a.5.5,0,0,1-.35-.85c.16-.17,4-4,7.4-4.29a.52.52,0,0,1,.55.46.51.51,0,0,1-.46.54c-3,.28-6.74,4-6.78,4A.51.51,0,0,1,415.06,299.13Z" style="fill:#263238"></path><path d="M426.25,361.64l-.15,0a.5.5,0,0,1-.33-.62c.05-.15,1.17-3.77,3.8-5.08a.5.5,0,1,1,.45.89c-2.24,1.12-3.28,4.45-3.29,4.48A.51.51,0,0,1,426.25,361.64Z" style="fill:#263238"></path><path d="M426.56,356.55a.54.54,0,0,1-.3-.1.5.5,0,0,1-.1-.7,12.22,12.22,0,0,1,3.88-3.54.49.49,0,0,1,.67.22.51.51,0,0,1-.22.67,11.66,11.66,0,0,0-3.53,3.25A.51.51,0,0,1,426.56,356.55Z" style="fill:#263238"></path><path d="M445.6,406.59l-18.06,21.92,5.09-27.2,94.83-233a2.29,2.29,0,0,1,3-1.25l8.73,3.56a2.28,2.28,0,0,1,1.26,3Z" style="fill:#FFC100"></path><path d="M427.54,429a.5.5,0,0,1-.21-.05.48.48,0,0,1-.28-.54l5.09-27.2,0-.1L527,168.17a2.78,2.78,0,0,1,3.63-1.53l8.73,3.55a2.79,2.79,0,0,1,1.53,3.63l-94.83,233a.33.33,0,0,1-.07.13l-18.07,21.92A.51.51,0,0,1,427.54,429Zm5.58-27.55-4.73,25.23,16.78-20.36L540,173.44a1.77,1.77,0,0,0-1-2.32l-8.73-3.56a1.8,1.8,0,0,0-2.33,1Zm12.48,5.13h0Z" style="fill:#263238"></path><path d="M539.17,170.66l-8.73-3.56a2.29,2.29,0,0,0-3,1.25l-12,29.41,12.86,5.55,12.08-29.68A2.28,2.28,0,0,0,539.17,170.66Z" style="fill:#fff"></path><path d="M528.35,203.81a.45.45,0,0,1-.2,0l-12.86-5.55a.49.49,0,0,1-.26-.65l12-29.4a2.78,2.78,0,0,1,3.63-1.53l8.73,3.55h0a2.79,2.79,0,0,1,1.53,3.63L528.81,203.5a.51.51,0,0,1-.27.27A.43.43,0,0,1,528.35,203.81Zm-12.21-6.31,11.94,5.15L540,173.44a1.77,1.77,0,0,0-1-2.32h0l-8.73-3.56a1.8,1.8,0,0,0-2.33,1Z" style="fill:#263238"></path><path d="M539.17,170.66l-8.73-3.56a2.29,2.29,0,0,0-3,1.25l-6.13,15.05,13,5.23,6.11-15A2.28,2.28,0,0,0,539.17,170.66Z" style="fill:#263238"></path><path d="M534.32,189.13l-.19,0-13-5.23a.52.52,0,0,1-.28-.66l6.13-15a2.78,2.78,0,0,1,3.63-1.53l8.73,3.55a2.79,2.79,0,0,1,1.53,3.63l-6.11,15A.47.47,0,0,1,534.32,189.13Zm-12.33-6L534.05,188,540,173.44a1.77,1.77,0,0,0-1-2.32h0l-8.73-3.56a1.8,1.8,0,0,0-2.33,1Z" style="fill:#263238"></path><path d="M539.17,170.66l-8.73-3.56a2.29,2.29,0,0,0-3,1.25l-4.3,10.56,13,5.11,4.23-10.39A2.28,2.28,0,0,0,539.17,170.66Z" style="fill:#c4c4c4"></path><path d="M536.2,184.52a.39.39,0,0,1-.18,0l-13-5.11a.53.53,0,0,1-.28-.27.5.5,0,0,1,0-.38l4.3-10.55a2.78,2.78,0,0,1,3.63-1.53l8.73,3.55a2.79,2.79,0,0,1,1.53,3.63l-4.23,10.39A.5.5,0,0,1,536.2,184.52Zm-12.38-5.89,12.1,4.74,4-9.93a1.77,1.77,0,0,0-1-2.32h0l-8.73-3.56a1.8,1.8,0,0,0-2.33,1Z" style="fill:#263238"></path><polygon points="530.37 198.34 517.48 192.88 515.49 197.76 528.35 203.31 530.37 198.34" style="fill:#263238"></polygon><path d="M528.35,203.81a.45.45,0,0,1-.2,0l-12.86-5.55a.49.49,0,0,1-.26-.65l2-4.88a.47.47,0,0,1,.27-.28.46.46,0,0,1,.38,0l12.89,5.46a.49.49,0,0,1,.27.65l-2,5a.51.51,0,0,1-.27.27A.43.43,0,0,1,528.35,203.81Zm-12.21-6.31,11.94,5.15,1.64-4-12-5.08Z" style="fill:#263238"></path><path d="M445.6,406.59c-2.62-3.06-5-.65-5-.65s.21-6.39-2.68-7.62-5.29,3-5.29,3l-5.09,27.2Z" style="fill:#fff"></path><path d="M427.54,429a.5.5,0,0,1-.21-.05.48.48,0,0,1-.28-.54l5.09-27.2a.39.39,0,0,1,.06-.15c.11-.19,2.67-4.61,5.92-3.21,2.46,1.05,2.9,5.2,3,7.12a3.75,3.75,0,0,1,1.81-.44,4.3,4.3,0,0,1,3.08,1.73.5.5,0,0,1,0,.64l-18.07,21.92A.51.51,0,0,1,427.54,429Zm5.57-27.52-4.72,25.2,16.55-20.08a3.11,3.11,0,0,0-2.08-1.07,2.77,2.77,0,0,0-1.9.75.51.51,0,0,1-.56.11.49.49,0,0,1-.3-.48c0-1.68-.27-6.24-2.37-7.14C435.47,397.8,433.42,401,433.11,401.49Z" style="fill:#263238"></path><path d="M434.42,411.29c-1.19-.5-2.69.6-4,2.07l-2.84,15.15L436.22,418C436.26,415.12,435.94,412,434.42,411.29Z" style="fill:#263238"></path><path d="M427.54,429a.5.5,0,0,1-.21-.05.48.48,0,0,1-.28-.54l2.84-15.15A.45.45,0,0,1,430,413c1.83-2,3.38-2.71,4.61-2.19h0c1.47.64,2.16,3,2.1,7.15a.51.51,0,0,1-.11.31l-8.69,10.54A.51.51,0,0,1,427.54,429Zm3.3-15.42-2.45,13.1,7.33-8.9c0-3.42-.51-5.61-1.5-6h0C433.45,411.42,432.28,412.06,430.84,413.59Z" style="fill:#263238"></path><path d="M500.14,297.05s3.92,2-13.71,19.6-31.36,23-33.81,30.37S437,374.46,437,381.32s8.81,11.75,12.24,10.28,22.05-13.22,26.95-19.1,15.68-15.19,22-18.62,22.54-11.27,35.28-5.39" style="fill:#fff"></path><path d="M447.73,392.37a11.07,11.07,0,0,1-5.73-2c-3.48-2.29-5.55-5.67-5.55-9,0-4.31,5-13.52,9.36-21.65,2.78-5.13,5.4-10,6.34-12.81,1.34-4,5.75-7.33,12.41-12.34a187,187,0,0,0,21.51-18.23c12.76-12.75,14-17.09,13.94-18.36a.7.7,0,0,0-.13-.46.46.46,0,0,1-.2-.65.52.52,0,0,1,.69-.22,1.35,1.35,0,0,1,.62,1c.33,2-1.87,7.05-14.21,19.39a188.48,188.48,0,0,1-21.62,18.32c-6.51,4.89-10.82,8.13-12.06,11.86-1,2.91-3.61,7.8-6.41,13-4.33,8-9.24,17.11-9.24,21.17,0,3,1.91,6.08,5.1,8.19,2.38,1.57,5,2.24,6.45,1.63,3.6-1.54,22-13.23,26.76-19s15.47-15.12,22.19-18.74c14.32-7.71,26.67-9.58,35.72-5.4a.49.49,0,0,1,.24.66.5.5,0,0,1-.66.25c-11.06-5.1-25,.1-34.83,5.37-6.51,3.51-17.31,13-21.9,18.5-4.85,5.82-23.48,17.68-27.13,19.24A4.13,4.13,0,0,1,447.73,392.37Z" style="fill:#263238"></path><path d="M446.1,368.08a13.27,13.27,0,0,0,5.13,10c5.37,4.31,6.1,4.2,6.1,4.2s-7.72,7.61-11.27,7.91-9.4-5.68-9.11-8.86S442.84,366.6,446.1,368.08Z" style="fill:#fff"></path><path d="M445.8,390.69c-2.08,0-4.52-1.71-6.17-3.37s-3.35-4.12-3.18-6.05c.26-2.89,4.32-11.46,7.63-13.39a2.32,2.32,0,0,1,2.22-.25.49.49,0,0,1,.3.47,12.84,12.84,0,0,0,4.94,9.58c4.55,3.65,5.69,4.05,5.82,4.09a.49.49,0,0,1,.41.27.5.5,0,0,1-.09.58c-.32.32-7.89,7.75-11.58,8.05Zm-.31-22.24a1.83,1.83,0,0,0-.91.3c-3,1.72-6.91,10-7.14,12.61-.11,1.31,1,3.37,2.9,5.26s4.21,3.19,5.68,3.06c2.55-.22,8-4.9,10.41-7.25a45.07,45.07,0,0,1-5.51-4,13.86,13.86,0,0,1-5.32-10Z" style="fill:#263238"></path><path d="M468.26,358.24l-.14,0c-6.34-1.81-10.19-9.39-10.35-9.72a.49.49,0,0,1,.22-.67.5.5,0,0,1,.67.23c0,.07,3.82,7.51,9.74,9.2a.5.5,0,0,1,.34.62A.5.5,0,0,1,468.26,358.24Z" style="fill:#263238"></path><path d="M466,360.8a.59.59,0,0,1-.22-.05,15.53,15.53,0,0,1-5.86-4.79.48.48,0,0,1,.1-.69.5.5,0,0,1,.7.1,14.65,14.65,0,0,0,5.5,4.48.5.5,0,0,1,.23.67A.48.48,0,0,1,466,360.8Z" style="fill:#263238"></path><path d="M471.22,362.37h-.05a14.48,14.48,0,0,1-2.79-.59.51.51,0,0,1-.33-.63.5.5,0,0,1,.62-.33,14.23,14.23,0,0,0,2.59.56.5.5,0,0,1,0,1Z" style="fill:#263238"></path></g></svg>